<?xml version="1.0" encoding="utf-8"?>
<svg version="1.1"
	 id="Livello_1" xmlns:cc="http://creativecommons.org/ns#" xmlns:dc="http://purl.org/dc/elements/1.1/" xmlns:rdf="http://www.w3.org/1999/02/22-rdf-syntax-ns#"
	 xmlns="http://www.w3.org/2000/svg" xmlns:xlink="http://www.w3.org/1999/xlink" x="0px" y="0px" viewBox="0 0 740 280"
	 style="enable-background:new 0 0 740 280;" xml:space="preserve">
<style type="text/css">
	.st0{fill:#FF6635;}
	.st1{fill:#357EC0;}
	.st2{fill:#C8C8C8;}
</style>
<g>
	<path class="st0" d="M62,54.2c0,1.6-0.2,3-0.6,4.3c-0.4,1.3-0.9,2.4-1.6,3.3c-0.7,1-1.4,1.8-2.3,2.5c-0.9,0.7-1.8,1.2-2.8,1.7
		c-1,0.4-1.9,0.8-2.9,1c-1,0.2-1.9,0.3-2.8,0.3l14.6,12.6H52.9L38.3,67.2h-5v-7h15.8c0.9-0.1,1.7-0.3,2.4-0.5
		c0.7-0.3,1.4-0.7,1.9-1.2c0.5-0.5,0.9-1.1,1.2-1.8c0.3-0.7,0.4-1.5,0.4-2.4v-4.4c0-0.4,0-0.7-0.1-0.9c-0.1-0.2-0.2-0.4-0.4-0.5
		c-0.2-0.1-0.3-0.2-0.5-0.2c-0.2,0-0.3,0-0.5,0h-23v31.5h-7v-35c0-0.5,0.1-0.9,0.3-1.4c0.2-0.4,0.4-0.8,0.7-1.1
		c0.3-0.3,0.7-0.6,1.1-0.8s0.9-0.3,1.4-0.3h26.5c1.6,0,2.9,0.3,3.9,0.8c1.1,0.6,1.9,1.3,2.6,2.1c0.7,0.9,1.2,1.8,1.5,2.8
		c0.3,1,0.4,1.9,0.4,2.8V54.2z"/>
	<path class="st0" d="M99.2,60.4c0,1-0.2,2-0.5,3.1c-0.3,1.1-0.9,2.2-1.7,3.1c-0.8,1-1.8,1.8-3,2.4c-1.2,0.6-2.7,1-4.5,1H77v-6.6
		h12.6c0.9,0,1.7-0.3,2.2-0.9c0.5-0.6,0.8-1.3,0.8-2.2c0-0.9-0.3-1.6-0.9-2.1c-0.6-0.5-1.3-0.8-2.1-0.8H77c-0.9,0-1.7,0.3-2.2,0.9
		c-0.5,0.6-0.8,1.3-0.8,2.2v9.7c0,0.9,0.3,1.7,0.9,2.2c0.6,0.5,1.3,0.8,2.2,0.8h12.5v6.7H77c-1,0-2-0.2-3.1-0.5
		c-1.1-0.3-2.2-0.9-3.1-1.7c-1-0.8-1.8-1.8-2.4-3s-1-2.7-1-4.5v-9.8c0-1,0.2-2,0.5-3.1c0.3-1.1,0.9-2.2,1.7-3.1c0.8-1,1.8-1.8,3-2.4
		c1.2-0.6,2.7-1,4.5-1h12.6c1,0,2,0.2,3.1,0.5c1.1,0.3,2.2,0.9,3.1,1.7c1,0.8,1.8,1.8,2.4,3S99.2,58.6,99.2,60.4z"/>
	<path class="st0" d="M135.5,82.6c0,1.2-0.2,2.3-0.5,3.2c-0.3,1-0.7,1.8-1.2,2.5c-0.5,0.7-1.1,1.3-1.7,1.9c-0.7,0.5-1.4,0.9-2.1,1.2
		c-0.7,0.3-1.5,0.6-2.2,0.7c-0.7,0.2-1.4,0.2-2.1,0.2h-12.6v-7h12.6c0.9,0,1.7-0.2,2.1-0.7c0.5-0.5,0.7-1.2,0.7-2.1v-22
		c0-0.9-0.2-1.6-0.7-2.1c-0.5-0.5-1.2-0.7-2.1-0.7h-12.6c-0.9,0-1.5,0.3-2,0.8c-0.5,0.5-0.8,1.2-0.8,2V70c0,0.9,0.2,1.6,0.7,2.1
		c0.5,0.5,1.2,0.7,2.1,0.7h12.5v7h-12.6c-0.7,0-1.4-0.1-2.1-0.2c-0.7-0.2-1.5-0.4-2.2-0.7c-0.7-0.3-1.4-0.7-2.1-1.2
		c-0.7-0.5-1.2-1.1-1.7-1.9c-0.5-0.7-0.9-1.6-1.2-2.5c-0.3-1-0.5-2-0.5-3.2v-9.5c0-0.7,0.1-1.4,0.2-2.1c0.2-0.7,0.4-1.5,0.7-2.2
		c0.3-0.7,0.7-1.4,1.2-2.1c0.5-0.7,1.1-1.2,1.9-1.7c0.7-0.5,1.6-0.9,2.5-1.2c0.9-0.3,2-0.5,3.2-0.5h12.6c0.7,0,1.4,0.1,2.1,0.2
		c0.7,0.2,1.5,0.4,2.2,0.7c0.7,0.3,1.4,0.7,2.1,1.2c0.7,0.5,1.2,1.1,1.7,1.9c0.5,0.7,0.9,1.6,1.2,2.5c0.3,0.9,0.5,2,0.5,3.2V82.6z"
		/>
	<path class="st0" d="M148.9,44.8h-7v-6.3h7V44.8z M148.9,79.8h-7v-29h7V79.8z"/>
	<path class="st0" d="M183.7,70c0,1.2-0.2,2.3-0.5,3.2c-0.3,1-0.7,1.8-1.2,2.5c-0.5,0.7-1.1,1.3-1.7,1.9c-0.7,0.5-1.4,0.9-2.1,1.2
		c-0.7,0.3-1.5,0.6-2.2,0.7c-0.7,0.2-1.4,0.2-2.1,0.2H155v-7h18.9c0.9,0,1.7-0.2,2.1-0.7c0.5-0.5,0.7-1.2,0.7-2.1
		c-0.1-1.9-1-2.8-2.8-2.8h-10.8c-1.5,0-2.8-0.3-3.9-0.8s-1.9-1.2-2.6-2c-0.7-0.8-1.2-1.7-1.5-2.6c-0.3-0.9-0.4-1.8-0.4-2.6
		c0-1.6,0.3-2.9,0.8-3.9c0.6-1.1,1.3-1.9,2.1-2.6c0.8-0.7,1.8-1.1,2.7-1.4c1-0.3,1.9-0.4,2.8-0.4h17.2v7h-17.1c-0.4,0-0.6,0-0.8,0.1
		c-0.2,0.1-0.4,0.2-0.5,0.3c-0.1,0.1-0.2,0.3-0.2,0.4c0,0.2,0,0.3,0,0.4c0,0.3,0.1,0.5,0.2,0.7c0.1,0.2,0.2,0.3,0.3,0.3
		c0.1,0.1,0.3,0.1,0.5,0.1c0.2,0,0.3,0,0.5,0h10.8c1.8,0,3.3,0.3,4.6,1c1.3,0.6,2.3,1.5,3,2.4c0.8,1,1.3,2,1.7,3.2
		C183.5,68,183.7,69,183.7,70z"/>
	<path class="st0" d="M214.5,57.8h-12.2v22h-7.1v-22h-9.1v-7h9.1v-9.5h7.1v9.5h12.2V57.8z"/>
	<path class="st0" d="M244.3,57.8h-15.7c-0.9,0-1.7,0.2-2.1,0.7c-0.5,0.5-0.7,1.2-0.7,2.1v19.3h-7V60.5c0-1.2,0.2-2.3,0.5-3.2
		c0.3-0.9,0.7-1.8,1.2-2.5c0.5-0.7,1.1-1.3,1.8-1.9c0.7-0.5,1.4-0.9,2.1-1.2c0.7-0.3,1.5-0.6,2.2-0.7c0.7-0.2,1.4-0.2,2.1-0.2h15.8
		V57.8z"/>
	<path class="st0" d="M276.6,70.2c0,1-0.2,2-0.5,3.1c-0.3,1.1-0.9,2.2-1.7,3.1c-0.8,1-1.8,1.8-3,2.4c-1.2,0.6-2.7,1-4.5,1h-12.6
		c-1,0-2-0.2-3.1-0.5c-1.1-0.3-2.2-0.9-3.1-1.7c-1-0.8-1.8-1.8-2.4-3s-1-2.7-1-4.5c0-1,0.2-2,0.5-3.1c0.3-1.1,0.9-2.2,1.7-3.1
		c0.8-1,1.8-1.8,3-2.4c1.2-0.6,2.7-1,4.5-1H267v6.7h-12.6c-0.9,0-1.7,0.3-2.2,0.9c-0.5,0.6-0.8,1.3-0.8,2.2c0,0.9,0.3,1.6,0.9,2.1
		c0.6,0.5,1.3,0.8,2.1,0.8H267c0.9,0,1.7-0.3,2.2-0.9c0.5-0.6,0.8-1.3,0.8-2.1v-9.7c0-0.9-0.3-1.6-0.8-2.2c-0.6-0.5-1.3-0.8-2.1-0.8
		h-15.3v-6.6H267c1,0,2,0.2,3.1,0.5c1.1,0.3,2.2,0.9,3.1,1.7c1,0.8,1.8,1.8,2.4,3s1,2.7,1,4.5V70.2z"/>
	<path class="st0" d="M308.9,57.8h-12.2v22h-7.1v-22h-9.1v-7h9.1v-9.5h7.1v9.5h12.2V57.8z"/>
	<path class="st0" d="M320.6,44.8h-7v-6.3h7V44.8z M320.6,79.8h-7v-29h7V79.8z"/>
	<path class="st0" d="M358.8,70c0,1.2-0.2,2.3-0.5,3.2c-0.3,1-0.7,1.8-1.2,2.5c-0.5,0.7-1.1,1.3-1.7,1.9c-0.7,0.5-1.4,0.9-2.1,1.2
		s-1.5,0.6-2.2,0.7c-0.7,0.2-1.4,0.2-2.1,0.2h-12.6c-1,0-2-0.2-3.2-0.5c-1.1-0.3-2.2-0.9-3.2-1.7c-1-0.8-1.8-1.8-2.4-3
		c-0.7-1.2-1-2.8-1-4.6v-9.5c0-1.8,0.3-3.3,1-4.6c0.7-1.2,1.5-2.3,2.4-3c1-0.8,2-1.3,3.2-1.7c1.1-0.3,2.2-0.5,3.2-0.5H349
		c1.8,0,3.3,0.3,4.6,1c1.3,0.6,2.3,1.5,3,2.4c0.8,1,1.3,2,1.7,3.2c0.3,1.1,0.5,2.2,0.5,3.2V70z M351.9,60.6c0-1-0.2-1.7-0.7-2.1
		c-0.5-0.5-1.2-0.7-2.1-0.7h-12.5c-0.9,0-1.6,0.2-2.1,0.7c-0.5,0.5-0.7,1.2-0.7,2.1V70c0,0.9,0.2,1.6,0.7,2.1
		c0.5,0.5,1.2,0.7,2.1,0.7H349c0.9,0,1.7-0.2,2.1-0.7c0.5-0.5,0.7-1.2,0.7-2.1V60.6z"/>
	<path class="st0" d="M396.9,79.8h-7V63.7c0-0.9-0.2-1.7-0.5-2.5c-0.3-0.7-0.7-1.3-1.3-1.9c-0.5-0.5-1.2-0.9-1.9-1.2
		c-0.7-0.3-1.5-0.4-2.3-0.4h-12.2v22h-7V54.2c0-0.5,0.1-0.9,0.3-1.4c0.2-0.4,0.4-0.8,0.8-1.1s0.7-0.6,1.1-0.7
		c0.4-0.2,0.9-0.3,1.4-0.3H384c0.9,0,1.8,0.1,2.8,0.3c1,0.2,1.9,0.5,2.9,1c1,0.4,1.9,1,2.7,1.7c0.9,0.7,1.6,1.5,2.3,2.4
		c0.7,1,1.2,2.1,1.6,3.3s0.6,2.7,0.6,4.2V79.8z"/>
	<path class="st1" d="M428.8,57h24.5V41.3h7v38.5h-7V64.1h-24.5v15.7h-7V41.3h7V57z"/>
	<path class="st1" d="M499.1,70c0,1.2-0.2,2.3-0.5,3.2c-0.3,1-0.7,1.8-1.2,2.5c-0.5,0.7-1.1,1.3-1.7,1.9c-0.7,0.5-1.4,0.9-2.1,1.2
		c-0.7,0.3-1.5,0.6-2.2,0.7c-0.7,0.2-1.4,0.2-2.1,0.2h-12.6c-1,0-2-0.2-3.2-0.5c-1.1-0.3-2.2-0.9-3.2-1.7c-1-0.8-1.8-1.8-2.4-3
		c-0.7-1.2-1-2.8-1-4.6v-9.5c0-1.8,0.3-3.3,1-4.6c0.7-1.2,1.5-2.3,2.4-3c1-0.8,2-1.3,3.2-1.7s2.2-0.5,3.2-0.5h12.6
		c1.8,0,3.3,0.3,4.6,1c1.3,0.6,2.3,1.5,3,2.4c0.8,1,1.3,2,1.7,3.2c0.3,1.1,0.5,2.2,0.5,3.2V70z M492.1,60.6c0-1-0.2-1.7-0.7-2.1
		c-0.5-0.5-1.2-0.7-2.1-0.7h-12.5c-0.9,0-1.6,0.2-2.1,0.7c-0.5,0.5-0.7,1.2-0.7,2.1V70c0,0.9,0.2,1.6,0.7,2.1
		c0.5,0.5,1.2,0.7,2.1,0.7h12.5c0.9,0,1.7-0.2,2.1-0.7c0.5-0.5,0.7-1.2,0.7-2.1V60.6z"/>
	<path class="st1" d="M537.2,79.8h-7V63.7c0-0.9-0.2-1.7-0.5-2.5c-0.3-0.7-0.7-1.3-1.3-1.9c-0.5-0.5-1.2-0.9-1.9-1.2
		c-0.7-0.3-1.5-0.4-2.3-0.4H512v22h-7V54.2c0-0.5,0.1-0.9,0.3-1.4c0.2-0.4,0.4-0.8,0.8-1.1s0.7-0.6,1.1-0.7c0.4-0.2,0.9-0.3,1.4-0.3
		h15.7c0.9,0,1.8,0.1,2.8,0.3c1,0.2,1.9,0.5,2.9,1c1,0.4,1.9,1,2.7,1.7c0.9,0.7,1.6,1.5,2.3,2.4c0.7,1,1.2,2.1,1.6,3.3
		s0.6,2.7,0.6,4.2V79.8z"/>
	<path class="st1" d="M574.5,60.4c0,1-0.2,2-0.5,3.1c-0.3,1.1-0.9,2.2-1.7,3.1c-0.8,1-1.8,1.8-3,2.4s-2.7,1-4.5,1h-12.6v-6.6h12.6
		c0.9,0,1.7-0.3,2.2-0.9c0.5-0.6,0.8-1.3,0.8-2.2c0-0.9-0.3-1.6-0.9-2.1c-0.6-0.5-1.3-0.8-2.1-0.8h-12.6c-0.9,0-1.7,0.3-2.2,0.9
		s-0.8,1.3-0.8,2.2v9.7c0,0.9,0.3,1.7,0.9,2.2c0.6,0.5,1.3,0.8,2.2,0.8h12.5v6.7h-12.6c-1,0-2-0.2-3.1-0.5c-1.1-0.3-2.2-0.9-3.1-1.7
		c-1-0.8-1.8-1.8-2.4-3s-1-2.7-1-4.5v-9.8c0-1,0.2-2,0.5-3.1c0.3-1.1,0.9-2.2,1.7-3.1c0.8-1,1.8-1.8,3-2.4s2.7-1,4.5-1h12.6
		c1,0,2,0.2,3.1,0.5s2.2,0.9,3.1,1.7c1,0.8,1.8,1.8,2.4,3S574.5,58.6,574.5,60.4z"/>
	<path class="st1" d="M601.5,79.8h-12.6c-1,0-2.1-0.2-3.2-0.5c-1.1-0.3-2.2-0.9-3.2-1.7c-1-0.8-1.8-1.8-2.4-3c-0.6-1.2-1-2.8-1-4.6
		V50.8h7V70c0,0.9,0.2,1.6,0.7,2.1c0.5,0.5,1.2,0.7,2.1,0.7h12.5V79.8z M611.2,82.6c0,1.2-0.2,2.3-0.5,3.2c-0.3,1-0.7,1.8-1.2,2.5
		c-0.5,0.7-1.1,1.3-1.7,1.9c-0.7,0.5-1.4,0.9-2.1,1.2c-0.7,0.3-1.5,0.6-2.2,0.7c-0.7,0.2-1.4,0.2-2.1,0.2h-12.6v-7h12.6
		c0.9,0,1.6-0.2,2.1-0.7s0.7-1.2,0.7-2.1V50.8h7V82.6z"/>
	<path class="st1" d="M649.9,70c0,1.2-0.2,2.3-0.5,3.2c-0.3,1-0.7,1.8-1.2,2.5c-0.5,0.7-1.1,1.3-1.7,1.9c-0.7,0.5-1.4,0.9-2.1,1.2
		c-0.7,0.3-1.5,0.6-2.2,0.7c-0.7,0.2-1.4,0.2-2.1,0.2h-12.6v-7h12.6c0.9,0,1.6-0.2,2.1-0.7c0.5-0.5,0.7-1.2,0.7-2.1v-9.4
		c0-1-0.2-1.7-0.7-2.1c-0.5-0.5-1.2-0.7-2.1-0.7h-12.5c-0.9,0-1.7,0.2-2.1,0.7c-0.5,0.5-0.7,1.2-0.7,2.1v28.3h-7V60.5
		c0-1.2,0.2-2.3,0.5-3.2c0.3-0.9,0.7-1.8,1.2-2.5c0.5-0.7,1.1-1.3,1.8-1.9c0.7-0.5,1.4-0.9,2.1-1.2c0.7-0.3,1.5-0.6,2.2-0.7
		c0.7-0.2,1.4-0.2,2.1-0.2h12.6c1.2,0,2.3,0.2,3.2,0.5s1.8,0.7,2.5,1.2c0.7,0.5,1.3,1.1,1.9,1.7c0.5,0.7,0.9,1.4,1.2,2.1
		c0.3,0.7,0.6,1.5,0.7,2.2c0.2,0.7,0.2,1.4,0.2,2.1V70z"/>
	<path class="st1" d="M687.4,70c0,1.2-0.2,2.3-0.5,3.2c-0.3,1-0.7,1.8-1.2,2.5c-0.5,0.7-1.1,1.3-1.7,1.9c-0.7,0.5-1.4,0.9-2.1,1.2
		c-0.7,0.3-1.5,0.6-2.2,0.7c-0.7,0.2-1.4,0.2-2.1,0.2H665c-1,0-2-0.2-3.2-0.5c-1.1-0.3-2.2-0.9-3.2-1.7c-1-0.8-1.8-1.8-2.4-3
		c-0.7-1.2-1-2.8-1-4.6v-9.5c0-1.8,0.3-3.3,1-4.6c0.7-1.2,1.5-2.3,2.4-3c1-0.8,2-1.3,3.2-1.7s2.2-0.5,3.2-0.5h12.6
		c1.8,0,3.3,0.3,4.6,1c1.3,0.6,2.3,1.5,3,2.4c0.8,1,1.3,2,1.7,3.2c0.3,1.1,0.5,2.2,0.5,3.2V70z M680.5,60.6c0-1-0.2-1.7-0.7-2.1
		c-0.5-0.5-1.2-0.7-2.1-0.7h-12.5c-0.9,0-1.6,0.2-2.1,0.7c-0.5,0.5-0.7,1.2-0.7,2.1V70c0,0.9,0.2,1.6,0.7,2.1
		c0.5,0.5,1.2,0.7,2.1,0.7h12.5c0.9,0,1.7-0.2,2.1-0.7c0.5-0.5,0.7-1.2,0.7-2.1V60.6z"/>
	<path class="st1" d="M719.6,57.8h-12.2v22h-7.1v-22h-9.1v-7h9.1v-9.5h7.1v9.5h12.2V57.8z"/>
</g>
<g>
	<path class="st2" d="M59.1,122.3h5.5c0.9,0,1.7,0.1,2.5,0.2c0.8,0.2,1.4,0.5,2,0.9c0.6,0.4,1,0.9,1.3,1.6c0.3,0.6,0.5,1.4,0.5,2.4
		c0,0.9-0.2,1.7-0.5,2.3c-0.3,0.7-0.8,1.2-1.3,1.7c-0.6,0.4-1.2,0.8-2,1c-0.8,0.2-1.6,0.3-2.5,0.3H62v6h-2.9V122.3z M64.4,130.3
		c2.4,0,3.6-1,3.6-3c0-1-0.3-1.7-0.9-2.1c-0.6-0.4-1.5-0.6-2.7-0.6H62v5.7H64.4z"/>
	<path class="st2" d="M77.5,126.4h2.4l0.2,2.2h0.1c0.4-0.8,1-1.4,1.6-1.8c0.6-0.4,1.2-0.6,1.9-0.6c0.6,0,1,0.1,1.4,0.2l-0.5,2.5
		c-0.2-0.1-0.4-0.1-0.6-0.1c-0.2,0-0.4,0-0.7,0c-0.5,0-1,0.2-1.5,0.6c-0.5,0.4-1,1-1.4,2v7.5h-2.9V126.4z"/>
	<path class="st2" d="M89.7,132.5c0-1,0.2-1.9,0.5-2.7c0.3-0.8,0.7-1.5,1.3-2c0.5-0.5,1.1-1,1.8-1.3c0.7-0.3,1.4-0.5,2.1-0.5
		c0.8,0,1.6,0.1,2.2,0.4c0.6,0.3,1.2,0.7,1.6,1.2c0.4,0.5,0.7,1.1,1,1.9c0.2,0.7,0.3,1.5,0.3,2.4c0,0.6,0,1-0.1,1.4h-7.8
		c0.1,1.1,0.5,2,1.2,2.6c0.6,0.6,1.5,0.9,2.5,0.9c0.5,0,1-0.1,1.5-0.2c0.5-0.2,0.9-0.4,1.4-0.7l1,1.8c-0.6,0.4-1.2,0.7-1.9,0.9
		c-0.7,0.2-1.5,0.4-2.2,0.4c-0.9,0-1.6-0.1-2.4-0.4c-0.7-0.3-1.4-0.7-1.9-1.3c-0.5-0.6-1-1.2-1.3-2
		C89.9,134.4,89.7,133.5,89.7,132.5z M98,131.4c0-1-0.2-1.8-0.6-2.3c-0.4-0.6-1-0.8-1.9-0.8c-0.7,0-1.4,0.3-1.9,0.8
		c-0.6,0.5-0.9,1.3-1,2.3H98z"/>
	<path class="st2" d="M105.6,126.4h2.9l1.9,6.4c0.2,0.6,0.3,1.2,0.5,1.8c0.2,0.6,0.3,1.2,0.5,1.9h0.1c0.2-0.6,0.4-1.3,0.5-1.9
		c0.2-0.6,0.3-1.2,0.5-1.8l1.9-6.4h2.8l-4.2,12.3h-3.3L105.6,126.4z"/>
	<path class="st2" d="M122.5,132.5c0-1,0.2-1.9,0.5-2.7c0.3-0.8,0.7-1.5,1.3-2c0.5-0.5,1.1-1,1.8-1.3c0.7-0.3,1.4-0.5,2.1-0.5
		c0.8,0,1.6,0.1,2.2,0.4c0.6,0.3,1.2,0.7,1.6,1.2c0.4,0.5,0.7,1.1,1,1.9c0.2,0.7,0.3,1.5,0.3,2.4c0,0.6,0,1-0.1,1.4h-7.8
		c0.1,1.1,0.5,2,1.2,2.6c0.6,0.6,1.5,0.9,2.5,0.9c0.5,0,1-0.1,1.5-0.2c0.5-0.2,0.9-0.4,1.4-0.7l1,1.8c-0.6,0.4-1.2,0.7-1.9,0.9
		c-0.7,0.2-1.5,0.4-2.2,0.4c-0.9,0-1.6-0.1-2.4-0.4c-0.7-0.3-1.4-0.7-1.9-1.3c-0.5-0.6-1-1.2-1.3-2
		C122.7,134.4,122.5,133.5,122.5,132.5z M130.7,131.4c0-1-0.2-1.8-0.6-2.3c-0.4-0.6-1-0.8-1.9-0.8c-0.7,0-1.4,0.3-1.9,0.8
		c-0.6,0.5-0.9,1.3-1,2.3H130.7z"/>
	<path class="st2" d="M139.9,126.4h2.4l0.2,1.6h0.1c0.5-0.5,1.1-1,1.8-1.4c0.6-0.4,1.4-0.6,2.2-0.6c1.3,0,2.3,0.4,2.9,1.3
		c0.6,0.8,0.9,2,0.9,3.6v7.7h-2.9v-7.3c0-1-0.1-1.7-0.4-2.1c-0.3-0.4-0.8-0.6-1.5-0.6c-0.5,0-1,0.1-1.4,0.4
		c-0.4,0.3-0.9,0.6-1.4,1.1v8.6h-2.9V126.4z"/>
	<path class="st2" d="M158.2,128.6h-1.8v-2.1l1.9-0.1l0.4-3.4h2.4v3.4h3.1v2.3h-3.1v5.9c0,1.4,0.6,2.1,1.7,2.1c0.2,0,0.4,0,0.7-0.1
		c0.2,0,0.4-0.1,0.6-0.2l0.5,2.1c-0.3,0.1-0.7,0.2-1.1,0.3c-0.4,0.1-0.9,0.1-1.4,0.1c-0.7,0-1.3-0.1-1.8-0.3s-0.9-0.5-1.2-0.9
		c-0.3-0.4-0.5-0.9-0.7-1.4s-0.2-1.1-0.2-1.8V128.6z"/>
	<path class="st2" d="M184.4,135.4c0.5,0.4,1.1,0.8,1.6,1s1.1,0.4,1.8,0.4c0.7,0,1.2-0.1,1.5-0.4c0.3-0.3,0.5-0.6,0.5-1.1
		c0-0.2-0.1-0.5-0.2-0.7c-0.2-0.2-0.4-0.4-0.6-0.5s-0.5-0.3-0.9-0.4c-0.3-0.1-0.6-0.3-1-0.4c-0.4-0.1-0.8-0.3-1.2-0.5
		c-0.4-0.2-0.8-0.4-1.1-0.7c-0.3-0.3-0.6-0.6-0.8-1c-0.2-0.4-0.3-0.8-0.3-1.3c0-1.1,0.4-2,1.2-2.6c0.8-0.7,1.9-1,3.3-1
		c0.8,0,1.6,0.2,2.3,0.5c0.7,0.3,1.3,0.6,1.8,1l-1.3,1.8c-0.4-0.3-0.9-0.6-1.3-0.8c-0.4-0.2-0.9-0.3-1.4-0.3c-0.6,0-1.1,0.1-1.4,0.4
		c-0.3,0.3-0.4,0.6-0.4,1c0,0.2,0.1,0.5,0.2,0.6c0.1,0.2,0.3,0.3,0.6,0.5c0.2,0.1,0.5,0.3,0.8,0.4c0.3,0.1,0.6,0.2,1,0.4
		c0.4,0.1,0.8,0.3,1.2,0.5c0.4,0.2,0.8,0.4,1.1,0.7c0.3,0.3,0.6,0.6,0.8,1c0.2,0.4,0.3,0.9,0.3,1.5c0,0.5-0.1,1-0.3,1.5
		c-0.2,0.5-0.5,0.9-0.9,1.2c-0.4,0.3-0.9,0.6-1.5,0.8c-0.6,0.2-1.3,0.3-2,0.3c-0.9,0-1.7-0.2-2.5-0.5c-0.8-0.3-1.5-0.7-2.1-1.2
		L184.4,135.4z"/>
	<path class="st2" d="M201.9,139.6v3.9H199v-17.1h2.4l0.2,1.3h0.1c0.5-0.4,1.1-0.8,1.7-1.1c0.6-0.3,1.3-0.5,2-0.5
		c0.8,0,1.4,0.1,2,0.4c0.6,0.3,1.1,0.7,1.5,1.3c0.4,0.5,0.7,1.2,1,2c0.2,0.8,0.3,1.6,0.3,2.6c0,1.1-0.1,2-0.4,2.8
		c-0.3,0.8-0.7,1.5-1.2,2.1c-0.5,0.6-1,1-1.7,1.3c-0.6,0.3-1.3,0.4-2,0.4c-0.5,0-1.1-0.1-1.6-0.3c-0.5-0.2-1-0.6-1.5-1L201.9,139.6z
		 M201.9,135.5c0.4,0.4,0.9,0.6,1.3,0.8c0.4,0.1,0.8,0.2,1.2,0.2c0.8,0,1.5-0.4,2.1-1.1c0.5-0.7,0.8-1.8,0.8-3.2
		c0-1.2-0.2-2.2-0.6-2.9s-1.1-1-2-1c-0.9,0-1.8,0.5-2.7,1.4V135.5z"/>
	<path class="st2" d="M216.2,135.4c0-1.3,0.6-2.3,1.7-3.1c1.1-0.7,3-1.2,5.5-1.5c0-0.3,0-0.6-0.1-0.9c-0.1-0.3-0.2-0.5-0.4-0.8
		c-0.2-0.2-0.4-0.4-0.7-0.5s-0.6-0.2-1-0.2c-0.6,0-1.2,0.1-1.8,0.4c-0.6,0.2-1.1,0.5-1.7,0.9l-1.1-1.9c0.7-0.4,1.4-0.8,2.3-1.1
		c0.8-0.3,1.8-0.5,2.7-0.5c1.5,0,2.7,0.5,3.4,1.4c0.8,0.9,1.1,2.2,1.1,3.9v7.3h-2.4l-0.2-1.4h-0.1c-0.5,0.5-1.1,0.9-1.8,1.2
		s-1.3,0.5-2,0.5c-1.1,0-2-0.3-2.6-1C216.5,137.3,216.2,136.4,216.2,135.4z M219,135.1c0,0.5,0.2,0.9,0.5,1.2
		c0.3,0.2,0.7,0.4,1.3,0.4c0.5,0,1-0.1,1.4-0.3c0.4-0.2,0.9-0.6,1.3-1v-2.8c-0.8,0.1-1.5,0.2-2.1,0.4s-1,0.4-1.4,0.6
		c-0.3,0.2-0.6,0.4-0.7,0.7C219.1,134.5,219,134.8,219,135.1z"/>
	<path class="st2" d="M233.7,126.4h2.4l0.2,1.7h0.1c0.5-0.5,1.1-1,1.7-1.4c0.6-0.4,1.3-0.6,2.1-0.6c0.9,0,1.6,0.2,2.2,0.6
		c0.5,0.4,1,0.9,1.2,1.6c0.6-0.6,1.2-1.2,1.8-1.6c0.6-0.4,1.3-0.6,2.1-0.6c1.3,0,2.3,0.4,2.9,1.3c0.6,0.8,0.9,2,0.9,3.6v7.7h-2.9
		v-7.3c0-1-0.2-1.7-0.5-2.1c-0.3-0.4-0.8-0.6-1.4-0.6c-0.8,0-1.6,0.5-2.6,1.5v8.6h-2.9v-7.3c0-1-0.2-1.7-0.5-2.1
		c-0.3-0.4-0.8-0.6-1.4-0.6c-0.8,0-1.6,0.5-2.6,1.5v8.6h-2.9V126.4z"/>
	<path class="st2" d="M258.7,121h2.9v4.5l-0.1,2.1c0.5-0.5,1.1-0.8,1.7-1.1c0.6-0.3,1.2-0.4,1.9-0.4c0.8,0,1.5,0.1,2.1,0.4
		c0.6,0.3,1.1,0.7,1.5,1.2c0.4,0.5,0.7,1.2,1,2c0.2,0.8,0.3,1.6,0.3,2.6c0,1.1-0.1,2-0.4,2.8c-0.3,0.8-0.7,1.5-1.2,2.1
		c-0.5,0.6-1,1-1.7,1.3c-0.6,0.3-1.3,0.4-2,0.4c-0.6,0-1.1-0.1-1.7-0.4c-0.6-0.3-1.1-0.6-1.6-1.1h-0.1l-0.2,1.2h-2.3V121z
		 M261.6,135.5c0.4,0.4,0.9,0.6,1.3,0.8c0.4,0.1,0.8,0.2,1.2,0.2c0.8,0,1.5-0.4,2.1-1.1c0.5-0.7,0.8-1.8,0.8-3.2
		c0-1.2-0.2-2.2-0.6-2.9s-1.1-1-2-1c-0.9,0-1.8,0.5-2.7,1.4V135.5z"/>
	<path class="st2" d="M275.9,132.5c0-1,0.2-1.9,0.5-2.7c0.3-0.8,0.7-1.5,1.3-2c0.5-0.5,1.2-1,1.9-1.3c0.7-0.3,1.4-0.4,2.2-0.4
		c0.8,0,1.5,0.1,2.2,0.4c0.7,0.3,1.3,0.7,1.9,1.3s1,1.2,1.3,2c0.3,0.8,0.5,1.7,0.5,2.7s-0.2,1.9-0.5,2.7c-0.3,0.8-0.8,1.5-1.3,2
		s-1.2,1-1.9,1.2c-0.7,0.3-1.4,0.4-2.2,0.4c-0.8,0-1.5-0.1-2.2-0.4c-0.7-0.3-1.3-0.7-1.9-1.2c-0.5-0.5-1-1.2-1.3-2
		C276.1,134.4,275.9,133.5,275.9,132.5z M278.9,132.5c0,1.2,0.3,2.2,0.8,3c0.5,0.7,1.2,1.1,2.1,1.1s1.6-0.4,2.1-1.1
		c0.5-0.7,0.8-1.7,0.8-3c0-1.2-0.3-2.2-0.8-3c-0.5-0.7-1.2-1.1-2.1-1.1s-1.6,0.4-2.1,1.1S278.9,131.3,278.9,132.5z"/>
	<path class="st2" d="M294.8,128.6h-1.8v-2.1l1.9-0.1l0.4-3.4h2.4v3.4h3.1v2.3h-3.1v5.9c0,1.4,0.6,2.1,1.7,2.1c0.2,0,0.4,0,0.7-0.1
		c0.2,0,0.4-0.1,0.6-0.2l0.5,2.1c-0.3,0.1-0.7,0.2-1.1,0.3c-0.4,0.1-0.9,0.1-1.4,0.1c-0.7,0-1.3-0.1-1.8-0.3s-0.9-0.5-1.2-0.9
		c-0.3-0.4-0.5-0.9-0.7-1.4s-0.2-1.1-0.2-1.8V128.6z"/>
	<path class="st2" d="M307.5,135.4c0.5,0.4,1.1,0.8,1.6,1s1.1,0.4,1.8,0.4c0.7,0,1.2-0.1,1.5-0.4c0.3-0.3,0.5-0.6,0.5-1.1
		c0-0.2-0.1-0.5-0.2-0.7c-0.2-0.2-0.4-0.4-0.6-0.5s-0.5-0.3-0.9-0.4c-0.3-0.1-0.6-0.3-1-0.4c-0.4-0.1-0.8-0.3-1.2-0.5
		c-0.4-0.2-0.8-0.4-1.1-0.7c-0.3-0.3-0.6-0.6-0.8-1c-0.2-0.4-0.3-0.8-0.3-1.3c0-1.1,0.4-2,1.2-2.6c0.8-0.7,1.9-1,3.3-1
		c0.8,0,1.6,0.2,2.3,0.5c0.7,0.3,1.3,0.6,1.8,1l-1.3,1.8c-0.4-0.3-0.9-0.6-1.3-0.8c-0.4-0.2-0.9-0.3-1.4-0.3c-0.6,0-1.1,0.1-1.4,0.4
		c-0.3,0.3-0.4,0.6-0.4,1c0,0.2,0.1,0.5,0.2,0.6c0.1,0.2,0.3,0.3,0.6,0.5c0.2,0.1,0.5,0.3,0.8,0.4c0.3,0.1,0.6,0.2,1,0.4
		c0.4,0.1,0.8,0.3,1.2,0.5c0.4,0.2,0.8,0.4,1.1,0.7c0.3,0.3,0.6,0.6,0.8,1c0.2,0.4,0.3,0.9,0.3,1.5c0,0.5-0.1,1-0.3,1.5
		c-0.2,0.5-0.5,0.9-0.9,1.2c-0.4,0.3-0.9,0.6-1.5,0.8c-0.6,0.2-1.3,0.3-2,0.3c-0.9,0-1.7-0.2-2.5-0.5c-0.8-0.3-1.5-0.7-2.1-1.2
		L307.5,135.4z"/>
	<path class="st2" d="M341.8,123.3c-0.5-0.2-0.9-0.3-1.4-0.3c-1,0-1.5,0.7-1.5,2.1v1.3h2.4v2.3h-2.4v10h-2.9v-10h-1.7v-2.1l1.7-0.1
		v-1.3c0-0.6,0.1-1.2,0.2-1.8c0.2-0.5,0.4-1,0.7-1.4s0.8-0.7,1.3-0.9c0.5-0.2,1.1-0.3,1.9-0.3c0.4,0,0.8,0,1.2,0.1
		c0.4,0.1,0.7,0.2,1,0.3L341.8,123.3z"/>
	<path class="st2" d="M347.4,126.4h2.4l0.2,2.2h0.1c0.4-0.8,1-1.4,1.6-1.8c0.6-0.4,1.2-0.6,1.9-0.6c0.6,0,1,0.1,1.4,0.2l-0.5,2.5
		c-0.2-0.1-0.4-0.1-0.6-0.1c-0.2,0-0.4,0-0.7,0c-0.5,0-1,0.2-1.5,0.6c-0.5,0.4-1,1-1.4,2v7.5h-2.9V126.4z"/>
	<path class="st2" d="M359.6,132.5c0-1,0.2-1.9,0.5-2.7c0.3-0.8,0.7-1.5,1.3-2c0.5-0.5,1.2-1,1.9-1.3c0.7-0.3,1.4-0.4,2.2-0.4
		c0.8,0,1.5,0.1,2.2,0.4c0.7,0.3,1.3,0.7,1.9,1.3s1,1.2,1.3,2c0.3,0.8,0.5,1.7,0.5,2.7s-0.2,1.9-0.5,2.7c-0.3,0.8-0.8,1.5-1.3,2
		s-1.2,1-1.9,1.2c-0.7,0.3-1.4,0.4-2.2,0.4c-0.8,0-1.5-0.1-2.2-0.4c-0.7-0.3-1.3-0.7-1.9-1.2c-0.5-0.5-1-1.2-1.3-2
		C359.8,134.4,359.6,133.5,359.6,132.5z M362.6,132.5c0,1.2,0.3,2.2,0.8,3c0.5,0.7,1.2,1.1,2.1,1.1s1.6-0.4,2.1-1.1
		c0.5-0.7,0.8-1.7,0.8-3c0-1.2-0.3-2.2-0.8-3c-0.5-0.7-1.2-1.1-2.1-1.1s-1.6,0.4-2.1,1.1S362.6,131.3,362.6,132.5z"/>
	<path class="st2" d="M378.1,126.4h2.4l0.2,1.7h0.1c0.5-0.5,1.1-1,1.7-1.4c0.6-0.4,1.3-0.6,2.1-0.6c0.9,0,1.6,0.2,2.2,0.6
		c0.5,0.4,1,0.9,1.2,1.6c0.6-0.6,1.2-1.2,1.8-1.6c0.6-0.4,1.3-0.6,2.1-0.6c1.3,0,2.3,0.4,2.9,1.3c0.6,0.8,0.9,2,0.9,3.6v7.7h-2.9
		v-7.3c0-1-0.2-1.7-0.5-2.1c-0.3-0.4-0.8-0.6-1.4-0.6c-0.8,0-1.6,0.5-2.6,1.5v8.6h-2.9v-7.3c0-1-0.2-1.7-0.5-2.1
		c-0.3-0.4-0.8-0.6-1.4-0.6c-0.8,0-1.6,0.5-2.6,1.5v8.6h-2.9V126.4z"/>
	<path class="st2" d="M415.8,132.5c0-1,0.2-1.9,0.5-2.7c0.3-0.8,0.8-1.5,1.3-2s1.2-1,2-1.3c0.7-0.3,1.5-0.4,2.3-0.4
		c0.8,0,1.5,0.1,2.1,0.4c0.6,0.3,1.1,0.6,1.5,1l-1.4,1.8c-0.3-0.3-0.7-0.5-1-0.7c-0.3-0.2-0.7-0.2-1.1-0.2c-1,0-1.8,0.4-2.4,1.1
		c-0.6,0.7-0.9,1.7-0.9,3c0,1.2,0.3,2.2,0.9,3c0.6,0.7,1.4,1.1,2.4,1.1c0.5,0,1-0.1,1.4-0.3s0.8-0.5,1.1-0.7l1.2,1.8
		c-0.6,0.5-1.2,0.9-1.9,1.2c-0.7,0.3-1.4,0.4-2.1,0.4c-0.8,0-1.6-0.1-2.3-0.4c-0.7-0.3-1.4-0.7-1.9-1.2s-0.9-1.2-1.2-2
		C415.9,134.4,415.8,133.5,415.8,132.5z"/>
	<path class="st2" d="M432.1,126.4h2.4l0.2,2.2h0.1c0.4-0.8,1-1.4,1.6-1.8c0.6-0.4,1.2-0.6,1.9-0.6c0.6,0,1.1,0.1,1.4,0.2l-0.5,2.5
		c-0.2-0.1-0.4-0.1-0.6-0.1c-0.2,0-0.4,0-0.7,0c-0.5,0-1,0.2-1.5,0.6c-0.5,0.4-1,1-1.4,2v7.5h-2.9V126.4z"/>
	<path class="st2" d="M444.3,132.5c0-1,0.2-1.9,0.5-2.7c0.3-0.8,0.7-1.5,1.3-2c0.5-0.5,1.1-1,1.8-1.3c0.7-0.3,1.4-0.5,2.1-0.5
		c0.8,0,1.6,0.1,2.2,0.4c0.6,0.3,1.2,0.7,1.6,1.2c0.4,0.5,0.7,1.1,1,1.9c0.2,0.7,0.3,1.5,0.3,2.4c0,0.6,0,1-0.1,1.4h-7.8
		c0.1,1.1,0.5,2,1.2,2.6c0.6,0.6,1.5,0.9,2.5,0.9c0.5,0,1-0.1,1.5-0.2c0.5-0.2,0.9-0.4,1.4-0.7l1,1.8c-0.6,0.4-1.2,0.7-2,0.9
		c-0.7,0.2-1.5,0.4-2.2,0.4c-0.9,0-1.6-0.1-2.4-0.4c-0.7-0.3-1.4-0.7-1.9-1.3c-0.6-0.6-1-1.2-1.3-2
		C444.4,134.4,444.3,133.5,444.3,132.5z M452.5,131.4c0-1-0.2-1.8-0.6-2.3c-0.4-0.6-1-0.8-1.9-0.8c-0.7,0-1.4,0.3-1.9,0.8
		s-0.9,1.3-1,2.3H452.5z"/>
	<path class="st2" d="M460.8,135.4c0-1.3,0.6-2.3,1.7-3.1c1.1-0.7,3-1.2,5.5-1.5c0-0.3,0-0.6-0.1-0.9c-0.1-0.3-0.2-0.5-0.4-0.8
		s-0.4-0.4-0.7-0.5c-0.3-0.1-0.6-0.2-1-0.2c-0.6,0-1.2,0.1-1.8,0.4s-1.1,0.5-1.7,0.9l-1-1.9c0.7-0.4,1.4-0.8,2.3-1.1
		c0.8-0.3,1.8-0.5,2.7-0.5c1.5,0,2.7,0.5,3.5,1.4c0.8,0.9,1.1,2.2,1.1,3.9v7.3h-2.4l-0.2-1.4h-0.1c-0.5,0.5-1.1,0.9-1.8,1.2
		s-1.3,0.5-2,0.5c-1.1,0-2-0.3-2.6-1C461.2,137.3,460.8,136.4,460.8,135.4z M463.6,135.1c0,0.5,0.2,0.9,0.5,1.2
		c0.3,0.2,0.7,0.4,1.3,0.4c0.5,0,1-0.1,1.4-0.3c0.4-0.2,0.9-0.6,1.3-1v-2.8c-0.8,0.1-1.5,0.2-2.1,0.4s-1,0.4-1.4,0.6
		s-0.6,0.4-0.7,0.7C463.7,134.5,463.6,134.8,463.6,135.1z"/>
	<path class="st2" d="M478.8,128.6H477v-2.1l1.9-0.1l0.3-3.4h2.4v3.4h3.1v2.3h-3.1v5.9c0,1.4,0.6,2.1,1.7,2.1c0.2,0,0.4,0,0.7-0.1
		c0.2,0,0.4-0.1,0.6-0.2l0.5,2.1c-0.3,0.1-0.7,0.2-1.1,0.3c-0.4,0.1-0.9,0.1-1.4,0.1c-0.7,0-1.3-0.1-1.8-0.3
		c-0.5-0.2-0.9-0.5-1.2-0.9c-0.3-0.4-0.5-0.9-0.7-1.4c-0.1-0.5-0.2-1.1-0.2-1.8V128.6z"/>
	<path class="st2" d="M492.8,124.2c-0.5,0-0.9-0.2-1.3-0.5c-0.3-0.3-0.5-0.7-0.5-1.2s0.2-0.9,0.5-1.2c0.3-0.3,0.8-0.5,1.3-0.5
		c0.5,0,0.9,0.2,1.3,0.5s0.5,0.7,0.5,1.2s-0.2,0.9-0.5,1.2S493.3,124.2,492.8,124.2z M491.3,126.4h2.9v12.3h-2.9V126.4z"/>
	<path class="st2" d="M501.8,126.4h2.4l0.2,1.6h0.1c0.5-0.5,1.1-1,1.8-1.4c0.6-0.4,1.4-0.6,2.2-0.6c1.3,0,2.3,0.4,2.9,1.3
		c0.6,0.8,0.9,2,0.9,3.6v7.7h-2.9v-7.3c0-1-0.1-1.7-0.5-2.1c-0.3-0.4-0.8-0.6-1.5-0.6c-0.5,0-1,0.1-1.4,0.4
		c-0.4,0.3-0.9,0.6-1.4,1.1v8.6h-2.9V126.4z"/>
	<path class="st2" d="M518.9,140.9c0-0.5,0.2-1,0.5-1.4c0.3-0.4,0.7-0.8,1.3-1.2v-0.1c-0.3-0.2-0.6-0.5-0.8-0.8
		c-0.2-0.3-0.3-0.8-0.3-1.2c0-0.5,0.1-0.9,0.4-1.3s0.6-0.7,0.9-1v-0.1c-0.4-0.3-0.8-0.8-1.1-1.3s-0.5-1.2-0.5-1.9
		c0-0.7,0.1-1.3,0.4-1.9c0.3-0.6,0.6-1,1.1-1.4s1-0.7,1.5-0.9c0.6-0.2,1.2-0.3,1.8-0.3c0.3,0,0.7,0,1,0.1c0.3,0.1,0.6,0.1,0.8,0.2
		h4.4v2.1h-2.2c0.2,0.2,0.4,0.5,0.5,0.9c0.1,0.4,0.2,0.8,0.2,1.2c0,0.7-0.1,1.3-0.4,1.8c-0.2,0.5-0.6,0.9-1,1.3s-0.9,0.6-1.5,0.8
		c-0.6,0.2-1.2,0.3-1.8,0.3c-0.3,0-0.5,0-0.8-0.1c-0.3,0-0.6-0.1-0.8-0.2c-0.2,0.2-0.3,0.3-0.4,0.5c-0.1,0.2-0.2,0.4-0.2,0.7
		c0,0.3,0.1,0.6,0.4,0.8c0.3,0.2,0.8,0.3,1.6,0.3h2.2c1.5,0,2.6,0.2,3.4,0.7c0.8,0.5,1.1,1.2,1.1,2.3c0,0.6-0.2,1.2-0.5,1.7
		s-0.7,1-1.3,1.4c-0.6,0.4-1.3,0.7-2.1,0.9c-0.8,0.2-1.7,0.3-2.7,0.3c-0.7,0-1.4-0.1-2-0.2s-1.2-0.3-1.6-0.6c-0.5-0.3-0.8-0.6-1.1-1
		C519,141.9,518.9,141.4,518.9,140.9z M521.3,140.4c0,0.6,0.3,1,0.8,1.3c0.6,0.3,1.3,0.5,2.3,0.5c1,0,1.8-0.2,2.4-0.6
		c0.6-0.4,0.9-0.9,0.9-1.4c0-0.5-0.2-0.8-0.6-1c-0.4-0.2-0.9-0.2-1.6-0.2h-1.7c-0.7,0-1.2-0.1-1.7-0.2
		C521.6,139.3,521.3,139.9,521.3,140.4z M524.1,132.9c0.6,0,1.1-0.2,1.5-0.6c0.4-0.4,0.6-1,0.6-1.8c0-0.8-0.2-1.4-0.6-1.8
		c-0.4-0.4-0.9-0.6-1.5-0.6s-1.1,0.2-1.5,0.6c-0.4,0.4-0.6,1-0.6,1.8c0,0.8,0.2,1.4,0.6,1.8C523,132.7,523.5,132.9,524.1,132.9z"/>
	<path class="st2" d="M549.6,135.4c0-1.3,0.6-2.3,1.7-3.1c1.1-0.7,3-1.2,5.5-1.5c0-0.3,0-0.6-0.1-0.9c-0.1-0.3-0.2-0.5-0.4-0.8
		s-0.4-0.4-0.7-0.5c-0.3-0.1-0.6-0.2-1-0.2c-0.6,0-1.2,0.1-1.8,0.4s-1.1,0.5-1.7,0.9l-1-1.9c0.7-0.4,1.4-0.8,2.3-1.1
		c0.8-0.3,1.8-0.5,2.7-0.5c1.5,0,2.7,0.5,3.5,1.4c0.8,0.9,1.1,2.2,1.1,3.9v7.3h-2.4l-0.2-1.4h-0.1c-0.5,0.5-1.1,0.9-1.8,1.2
		s-1.3,0.5-2,0.5c-1.1,0-2-0.3-2.6-1C550,137.3,549.6,136.4,549.6,135.4z M552.4,135.1c0,0.5,0.2,0.9,0.5,1.2
		c0.3,0.2,0.7,0.4,1.3,0.4c0.5,0,1-0.1,1.4-0.3c0.4-0.2,0.9-0.6,1.3-1v-2.8c-0.8,0.1-1.5,0.2-2.1,0.4s-1,0.4-1.4,0.6
		s-0.6,0.4-0.7,0.7C552.5,134.5,552.4,134.8,552.4,135.1z"/>
	<path class="st2" d="M566.4,132.5c0-1,0.2-1.9,0.5-2.7c0.3-0.8,0.8-1.5,1.3-2s1.2-1,2-1.3c0.7-0.3,1.5-0.4,2.3-0.4
		c0.8,0,1.5,0.1,2.1,0.4c0.6,0.3,1.1,0.6,1.5,1l-1.4,1.8c-0.3-0.3-0.7-0.5-1-0.7c-0.3-0.2-0.7-0.2-1.1-0.2c-1,0-1.8,0.4-2.4,1.1
		c-0.6,0.7-0.9,1.7-0.9,3c0,1.2,0.3,2.2,0.9,3c0.6,0.7,1.4,1.1,2.4,1.1c0.5,0,1-0.1,1.4-0.3s0.8-0.5,1.1-0.7l1.2,1.8
		c-0.6,0.5-1.2,0.9-1.9,1.2c-0.7,0.3-1.4,0.4-2.1,0.4c-0.8,0-1.6-0.1-2.3-0.4c-0.7-0.3-1.4-0.7-1.9-1.2s-0.9-1.2-1.2-2
		C566.5,134.4,566.4,133.5,566.4,132.5z"/>
	<path class="st2" d="M581.2,132.5c0-1,0.2-1.9,0.5-2.7c0.3-0.8,0.8-1.5,1.3-2s1.2-1,2-1.3c0.7-0.3,1.5-0.4,2.3-0.4
		c0.8,0,1.5,0.1,2.1,0.4c0.6,0.3,1.1,0.6,1.5,1l-1.4,1.8c-0.3-0.3-0.7-0.5-1-0.7c-0.3-0.2-0.7-0.2-1.1-0.2c-1,0-1.8,0.4-2.4,1.1
		c-0.6,0.7-0.9,1.7-0.9,3c0,1.2,0.3,2.2,0.9,3c0.6,0.7,1.4,1.1,2.4,1.1c0.5,0,1-0.1,1.4-0.3s0.8-0.5,1.1-0.7l1.2,1.8
		c-0.6,0.5-1.2,0.9-1.9,1.2c-0.7,0.3-1.4,0.4-2.1,0.4c-0.8,0-1.6-0.1-2.3-0.4c-0.7-0.3-1.4-0.7-1.9-1.2s-0.9-1.2-1.2-2
		C581.4,134.4,581.2,133.5,581.2,132.5z"/>
	<path class="st2" d="M596.1,132.5c0-1,0.2-1.9,0.5-2.7c0.3-0.8,0.7-1.5,1.3-2c0.5-0.5,1.2-1,1.9-1.3c0.7-0.3,1.4-0.4,2.2-0.4
		s1.5,0.1,2.2,0.4c0.7,0.3,1.3,0.7,1.9,1.3s1,1.2,1.3,2c0.3,0.8,0.5,1.7,0.5,2.7s-0.2,1.9-0.5,2.7c-0.3,0.8-0.8,1.5-1.3,2
		s-1.2,1-1.9,1.2c-0.7,0.3-1.4,0.4-2.2,0.4s-1.5-0.1-2.2-0.4c-0.7-0.3-1.3-0.7-1.9-1.2c-0.5-0.5-1-1.2-1.3-2
		C596.3,134.4,596.1,133.5,596.1,132.5z M599.1,132.5c0,1.2,0.3,2.2,0.8,3c0.5,0.7,1.2,1.1,2.1,1.1c0.9,0,1.6-0.4,2.1-1.1
		c0.5-0.7,0.8-1.7,0.8-3c0-1.2-0.3-2.2-0.8-3s-1.2-1.1-2.1-1.1c-0.9,0-1.6,0.4-2.1,1.1S599.1,131.3,599.1,132.5z"/>
	<path class="st2" d="M614.4,126.4h2.9v7.3c0,1,0.1,1.7,0.5,2.2c0.3,0.4,0.8,0.6,1.4,0.6c0.5,0,1-0.1,1.4-0.4
		c0.4-0.3,0.8-0.7,1.3-1.3v-8.4h2.9v12.3h-2.4l-0.2-1.8h-0.1c-0.5,0.6-1.1,1.1-1.7,1.5s-1.4,0.6-2.2,0.6c-1.3,0-2.3-0.4-2.9-1.3
		c-0.6-0.8-0.9-2-0.9-3.6V126.4z"/>
	<path class="st2" d="M632.4,126.4h2.4l0.2,1.6h0.1c0.5-0.5,1.1-1,1.8-1.4c0.6-0.4,1.4-0.6,2.2-0.6c1.3,0,2.3,0.4,2.9,1.3
		c0.6,0.8,0.9,2,0.9,3.6v7.7H640v-7.3c0-1-0.1-1.7-0.5-2.1c-0.3-0.4-0.8-0.6-1.5-0.6c-0.5,0-1,0.1-1.4,0.4c-0.4,0.3-0.9,0.6-1.4,1.1
		v8.6h-2.9V126.4z"/>
	<path class="st2" d="M650.7,128.6H649v-2.1l1.9-0.1l0.3-3.4h2.4v3.4h3.1v2.3h-3.1v5.9c0,1.4,0.6,2.1,1.7,2.1c0.2,0,0.4,0,0.7-0.1
		c0.2,0,0.4-0.1,0.6-0.2l0.5,2.1c-0.3,0.1-0.7,0.2-1.1,0.3c-0.4,0.1-0.9,0.1-1.4,0.1c-0.7,0-1.3-0.1-1.8-0.3
		c-0.5-0.2-0.9-0.5-1.2-0.9c-0.3-0.4-0.5-0.9-0.7-1.4c-0.1-0.5-0.2-1.1-0.2-1.8V128.6z"/>
	<path class="st2" d="M663.4,135.4c0.5,0.4,1.1,0.8,1.6,1c0.5,0.2,1.1,0.4,1.8,0.4c0.7,0,1.2-0.1,1.5-0.4c0.3-0.3,0.5-0.6,0.5-1.1
		c0-0.2-0.1-0.5-0.2-0.7c-0.2-0.2-0.4-0.4-0.6-0.5s-0.5-0.3-0.8-0.4s-0.6-0.3-1-0.4c-0.4-0.1-0.8-0.3-1.2-0.5
		c-0.4-0.2-0.8-0.4-1.1-0.7c-0.3-0.3-0.6-0.6-0.8-1c-0.2-0.4-0.3-0.8-0.3-1.3c0-1.1,0.4-2,1.2-2.6s1.9-1,3.3-1
		c0.8,0,1.6,0.2,2.3,0.5s1.3,0.6,1.8,1l-1.3,1.8c-0.4-0.3-0.9-0.6-1.3-0.8c-0.4-0.2-0.9-0.3-1.4-0.3c-0.6,0-1.1,0.1-1.4,0.4
		c-0.3,0.3-0.4,0.6-0.4,1c0,0.2,0.1,0.5,0.2,0.6c0.1,0.2,0.3,0.3,0.6,0.5c0.2,0.1,0.5,0.3,0.8,0.4c0.3,0.1,0.6,0.2,1,0.4
		c0.4,0.1,0.8,0.3,1.2,0.5c0.4,0.2,0.8,0.4,1.1,0.7c0.3,0.3,0.6,0.6,0.8,1c0.2,0.4,0.3,0.9,0.3,1.5c0,0.5-0.1,1-0.3,1.5
		c-0.2,0.5-0.5,0.9-0.9,1.2c-0.4,0.3-0.9,0.6-1.5,0.8c-0.6,0.2-1.3,0.3-2,0.3c-0.8,0-1.7-0.2-2.5-0.5s-1.5-0.7-2.1-1.2L663.4,135.4z
		"/>
	<path class="st2" d="M677.7,137c0-0.6,0.2-1,0.5-1.4s0.8-0.6,1.3-0.6c0.5,0,1,0.2,1.3,0.6c0.3,0.4,0.5,0.8,0.5,1.4
		c0,0.6-0.2,1-0.5,1.4c-0.4,0.4-0.8,0.5-1.3,0.5c-0.5,0-1-0.2-1.3-0.5S677.7,137.6,677.7,137z"/>
</g>
</svg>
