<?xml version="1.0" encoding="utf-8"?>
<svg version="1.1" id="Livello_1" xmlns="http://www.w3.org/2000/svg" xmlns:xlink="http://www.w3.org/1999/xlink" x="0px" y="0px"
	 viewBox="0 0 24 24" style="enable-background:new 0 0 24 24;" xml:space="preserve">
<style type="text/css">
	.st0{fill:#FF6635;}
	.st1{fill:#357EC0;}
	.st2{fill:none;}
</style>
<g>
	<path class="st0" d="M11.7,10.9c0,0.3,0,0.5-0.1,0.8s-0.2,0.4-0.3,0.6c-0.1,0.2-0.3,0.3-0.4,0.4s-0.3,0.2-0.5,0.3
		c-0.2,0.1-0.4,0.1-0.5,0.2s-0.3,0.1-0.5,0.1l2.7,2.3h-2l-2.6-2.3H6.5v-1.3h2.9c0.2,0,0.3,0,0.4-0.1c0.1-0.1,0.2-0.1,0.3-0.2
		s0.2-0.2,0.2-0.3c0.1-0.1,0.1-0.3,0.1-0.4v-0.8c0-0.1,0-0.1,0-0.2c0,0,0-0.1-0.1-0.1c0,0-0.1,0-0.1,0s-0.1,0-0.1,0H6v5.7H4.7V9.1
		c0-0.1,0-0.2,0-0.2s0.1-0.1,0.1-0.2S5,8.6,5.1,8.5s0.2,0,0.3,0h4.8c0.3,0,0.5,0.1,0.7,0.2c0.2,0.1,0.4,0.2,0.5,0.4
		c0.1,0.2,0.2,0.3,0.3,0.5s0.1,0.3,0.1,0.5V10.9z"/>
	<path class="st1" d="M13.6,11.4H18V8.5h1.3v7H18v-2.9h-4.5v2.9h-1.3v-7h1.3V11.4z"/>
</g>
<path class="st2" d="M12,2.1c-5.5,0-9.9,4.4-9.9,9.9s4.4,9.9,9.9,9.9c4.2,0,7.8-2.7,9.2-6.4H10.8v-7h10.5C19.8,4.8,16.2,2.1,12,2.1z
	"/>
<path class="st0" d="M12,21.9c-5.5,0-9.9-4.4-9.9-9.9S6.5,2.1,12,2.1c4.2,0,7.8,2.7,9.2,6.4h2.1c-1.5-4.9-6-8.4-11.4-8.4
	C5.4,0.1,0.1,5.4,0.1,12S5.4,23.9,12,23.9c5.4,0,9.9-3.5,11.4-8.4h-2.1C19.8,19.2,16.2,21.9,12,21.9z"/>
<path class="st1" d="M23.4,8.5h-2.1c0.4,1.1,0.7,2.3,0.7,3.5c0,1.2-0.2,2.4-0.7,3.5h2.1c0.3-1.1,0.5-2.3,0.5-3.5
	C23.9,10.8,23.7,9.6,23.4,8.5z"/>
</svg>
